<?xml version="1.0" encoding="utf-8"?>
<svg version="1.0" id="Layer_1" xmlns="http://www.w3.org/2000/svg" xmlns:xlink="http://www.w3.org/1999/xlink" x="0px" y="0px"
	 viewBox="0 0 30 30" style="enable-background:new 0 0 30 30;" xml:space="preserve">
<path id="Subtraction_1" d="M15,30c-3.9,0-7.7-1.5-10.5-4.3C1.7,22.9,0,19.2,0,15.2c-0.1-4,1.5-7.8,4.2-10.7C7,1.7,10.8,0,14.8,0H15
	c3.9,0,7.7,1.5,10.5,4.3c2.8,2.8,4.4,6.5,4.5,10.5c0.1,4-1.5,7.8-4.2,10.7C23,28.3,19.2,30,15.2,30H15z M10.8,11.5v3.6h1.8v8.9h3.6
	v-8.9h2.6l0.1-1.4l0.2-2.2h-2.8v-1.4c-0.1-0.4,0.2-0.8,0.6-0.9c0,0,0.1,0,0.1,0h2V6.2h-2.8c-1.2-0.1-2.3,0.4-3,1.3
	c-0.5,0.7-0.7,1.5-0.7,2.4v1.6H10.8z"/>
</svg>
